<mxfile host="app.diagrams.net" agent="Mozilla/5.0 (Macintosh; Intel Mac OS X 10_15_7) AppleWebKit/537.36 (KHTML, like Gecko) Chrome/139.0.0.0 Safari/537.36" version="28.1.1">
  <diagram name="Page-1" id="toyqWjw3-tFAEOU__Un6">
    <mxGraphModel grid="1" page="1" gridSize="10" guides="1" tooltips="1" connect="1" arrows="1" fold="1" pageScale="1" pageWidth="827" pageHeight="1169" math="0" shadow="0">
      <root>
        <mxCell id="0" />
        <mxCell id="1" parent="0" />
        <mxCell id="_b9NuXSDLzWbAmvTPXuV-12" value="Repository Service" style="rounded=0;whiteSpace=wrap;html=1;verticalAlign=top;" vertex="1" parent="1">
          <mxGeometry x="620" y="1110" width="450" height="180" as="geometry" />
        </mxCell>
        <mxCell id="HnpPnAv44DMsRuAQf5Vg-59" value="Enterprise Service Bus" style="rounded=0;whiteSpace=wrap;html=1;verticalAlign=top;" vertex="1" parent="1">
          <mxGeometry x="390" y="670" width="680" height="410" as="geometry" />
        </mxCell>
        <mxCell id="7jtiY5M9mVHTs9dgm_Sb-16" style="edgeStyle=orthogonalEdgeStyle;rounded=0;orthogonalLoop=1;jettySize=auto;html=1;exitX=1;exitY=0.5;exitDx=0;exitDy=0;exitPerimeter=0;" edge="1" parent="1" source="psYKPzLQwSFd3BFdngnA-9">
          <mxGeometry relative="1" as="geometry">
            <mxPoint x="500" y="826.3" as="targetPoint" />
            <mxPoint x="360" y="826" as="sourcePoint" />
          </mxGeometry>
        </mxCell>
        <mxCell id="ASGDk-45rUAA4ve6-Ohr-1" value="HL7 FHIR Message&lt;br&gt;O21" style="edgeLabel;html=1;align=center;verticalAlign=middle;resizable=0;points=[];" connectable="0" vertex="1" parent="7jtiY5M9mVHTs9dgm_Sb-16">
          <mxGeometry x="-0.2687" y="1" relative="1" as="geometry">
            <mxPoint x="22" y="-13" as="offset" />
          </mxGeometry>
        </mxCell>
        <mxCell id="SpyZkMs1lM7mogaTS6Ty-38" value="" style="rounded=0;whiteSpace=wrap;html=1;strokeColor=none;" vertex="1" parent="1">
          <mxGeometry x="110" y="800.25" width="63" height="50" as="geometry" />
        </mxCell>
        <mxCell id="HnpPnAv44DMsRuAQf5Vg-33" value="NW GMSA &lt;b&gt;Laboratory Information System (LIMS)&lt;/b&gt;" style="rounded=1;whiteSpace=wrap;html=1;fillColor=#dae8fc;strokeColor=#6c8ebf;" vertex="1" parent="1">
          <mxGeometry x="1370" y="706.75" width="120" height="60" as="geometry" />
        </mxCell>
        <mxCell id="7jtiY5M9mVHTs9dgm_Sb-18" style="edgeStyle=orthogonalEdgeStyle;rounded=0;orthogonalLoop=1;jettySize=auto;html=1;endArrow=none;startFill=0;" edge="1" parent="1" source="7jtiY5M9mVHTs9dgm_Sb-17" target="7jtiY5M9mVHTs9dgm_Sb-15">
          <mxGeometry relative="1" as="geometry" />
        </mxCell>
        <mxCell id="7jtiY5M9mVHTs9dgm_Sb-17" value="&lt;font style=&quot;font-size: 12px;&quot;&gt;Dynamic Rule Base&lt;br&gt;&lt;/font&gt;" style="html=1;strokeWidth=2;outlineConnect=0;dashed=0;align=center;fontSize=8;verticalLabelPosition=bottom;verticalAlign=top;shape=mxgraph.eip.message_store;fillColor=#c0f5a9" vertex="1" parent="1">
          <mxGeometry x="700" y="940" width="110" height="60" as="geometry" />
        </mxCell>
        <mxCell id="_b9NuXSDLzWbAmvTPXuV-1" value="" style="rounded=0;whiteSpace=wrap;html=1;strokeColor=none;" vertex="1" parent="1">
          <mxGeometry x="1280" y="719.5" width="73" height="50" as="geometry" />
        </mxCell>
        <mxCell id="_b9NuXSDLzWbAmvTPXuV-9" style="edgeStyle=orthogonalEdgeStyle;rounded=0;orthogonalLoop=1;jettySize=auto;html=1;entryX=0;entryY=0.5;entryDx=0;entryDy=0;exitX=1;exitY=0.5;exitDx=0;exitDy=0;exitPerimeter=0;" edge="1" parent="1" source="ASGDk-45rUAA4ve6-Ohr-6" target="_b9NuXSDLzWbAmvTPXuV-1">
          <mxGeometry relative="1" as="geometry">
            <mxPoint x="1102.7000000000003" y="824.9999999999998" as="targetPoint" />
          </mxGeometry>
        </mxCell>
        <mxCell id="_b9NuXSDLzWbAmvTPXuV-18" value="&lt;font style=&quot;font-size: 12px;&quot;&gt;HL7 v2.5.1&amp;nbsp;&lt;/font&gt;&lt;div&gt;&lt;font style=&quot;font-size: 12px;&quot;&gt;OML_O21&lt;/font&gt;&lt;/div&gt;" style="edgeLabel;html=1;align=center;verticalAlign=middle;resizable=0;points=[];" connectable="0" vertex="1" parent="_b9NuXSDLzWbAmvTPXuV-9">
          <mxGeometry x="-0.1386" y="-3" relative="1" as="geometry">
            <mxPoint x="14" y="-28" as="offset" />
          </mxGeometry>
        </mxCell>
        <mxCell id="_b9NuXSDLzWbAmvTPXuV-13" value="Clinical Data Repository" style="shape=cylinder3;whiteSpace=wrap;html=1;boundedLbl=1;backgroundOutline=1;size=15;" vertex="1" parent="1">
          <mxGeometry x="940" y="1160" width="60" height="80" as="geometry" />
        </mxCell>
        <mxCell id="_b9NuXSDLzWbAmvTPXuV-14" value="FHIR&amp;nbsp;&lt;div&gt;Repository&amp;nbsp;&lt;div&gt;Adaptor&lt;/div&gt;&lt;/div&gt;" style="strokeWidth=2;outlineConnect=0;dashed=0;align=center;html=1;fontSize=8;shape=mxgraph.eip.channel_adapter;fillColor=#9ddbef;" vertex="1" parent="1">
          <mxGeometry x="680" y="1155" width="45" height="90" as="geometry" />
        </mxCell>
        <mxCell id="_b9NuXSDLzWbAmvTPXuV-16" style="edgeStyle=orthogonalEdgeStyle;rounded=0;orthogonalLoop=1;jettySize=auto;html=1;entryX=0;entryY=0.5;entryDx=0;entryDy=0;entryPerimeter=0;" edge="1" parent="1" source="_b9NuXSDLzWbAmvTPXuV-14" target="_b9NuXSDLzWbAmvTPXuV-13">
          <mxGeometry relative="1" as="geometry" />
        </mxCell>
        <mxCell id="_b9NuXSDLzWbAmvTPXuV-17" value="HL7 FHIR RESTful" style="edgeLabel;html=1;align=center;verticalAlign=middle;resizable=0;points=[];" connectable="0" vertex="1" parent="_b9NuXSDLzWbAmvTPXuV-16">
          <mxGeometry x="-0.2917" y="-3" relative="1" as="geometry">
            <mxPoint x="28" y="17" as="offset" />
          </mxGeometry>
        </mxCell>
        <mxCell id="ASGDk-45rUAA4ve6-Ohr-8" style="edgeStyle=orthogonalEdgeStyle;rounded=0;orthogonalLoop=1;jettySize=auto;html=1;entryX=0;entryY=0.5;entryDx=0;entryDy=0;entryPerimeter=0;exitX=1;exitY=0.25;exitDx=0;exitDy=0;exitPerimeter=0;" edge="1" parent="1" source="7jtiY5M9mVHTs9dgm_Sb-15" target="ASGDk-45rUAA4ve6-Ohr-6">
          <mxGeometry relative="1" as="geometry">
            <mxPoint x="620" y="825.0000000000002" as="sourcePoint" />
            <Array as="points">
              <mxPoint x="850" y="808" />
              <mxPoint x="850" y="744" />
            </Array>
          </mxGeometry>
        </mxCell>
        <mxCell id="ASGDk-45rUAA4ve6-Ohr-4" style="edgeStyle=orthogonalEdgeStyle;rounded=0;orthogonalLoop=1;jettySize=auto;html=1;entryX=0;entryY=0.5;entryDx=0;entryDy=0;entryPerimeter=0;startArrow=classic;startFill=1;" edge="1" parent="1" target="_b9NuXSDLzWbAmvTPXuV-14">
          <mxGeometry relative="1" as="geometry">
            <mxPoint x="560" y="857.4999999999998" as="sourcePoint" />
            <Array as="points">
              <mxPoint x="560" y="1200" />
            </Array>
          </mxGeometry>
        </mxCell>
        <mxCell id="ASGDk-45rUAA4ve6-Ohr-5" value="HL7 FHIR Message &lt;br&gt;O21" style="edgeLabel;html=1;align=center;verticalAlign=middle;resizable=0;points=[];" connectable="0" vertex="1" parent="ASGDk-45rUAA4ve6-Ohr-4">
          <mxGeometry x="-0.25" y="-1" relative="1" as="geometry">
            <mxPoint x="-69" as="offset" />
          </mxGeometry>
        </mxCell>
        <mxCell id="ASGDk-45rUAA4ve6-Ohr-6" value="&lt;font style=&quot;font-size: 12px;&quot;&gt;Transform to&amp;nbsp;&lt;/font&gt;&lt;div&gt;&lt;font style=&quot;font-size: 12px;&quot;&gt;HL7 v2 Message&lt;/font&gt;&lt;br&gt;&lt;/div&gt;&lt;div&gt;&lt;font style=&quot;font-size: 12px;&quot;&gt;(Region Canonical Model)&lt;/font&gt;&lt;/div&gt;" style="html=1;strokeWidth=2;outlineConnect=0;dashed=0;align=center;fontSize=8;shape=mxgraph.eip.message_translator;fillColor=#c0f5a9;verticalLabelPosition=bottom;verticalAlign=top;" vertex="1" parent="1">
          <mxGeometry x="890" y="710.5" width="120" height="68" as="geometry" />
        </mxCell>
        <mxCell id="psYKPzLQwSFd3BFdngnA-1" style="edgeStyle=orthogonalEdgeStyle;rounded=0;orthogonalLoop=1;jettySize=auto;html=1;" edge="1" parent="1" source="ASGDk-45rUAA4ve6-Ohr-18" target="_b9NuXSDLzWbAmvTPXuV-13">
          <mxGeometry relative="1" as="geometry" />
        </mxCell>
        <mxCell id="psYKPzLQwSFd3BFdngnA-2" value="HL7 FHIR RESTful&amp;nbsp;&lt;br&gt;(read only)" style="edgeLabel;html=1;align=center;verticalAlign=middle;resizable=0;points=[];" connectable="0" vertex="1" parent="psYKPzLQwSFd3BFdngnA-1">
          <mxGeometry x="-0.1667" y="3" relative="1" as="geometry">
            <mxPoint x="15" y="17" as="offset" />
          </mxGeometry>
        </mxCell>
        <mxCell id="ASGDk-45rUAA4ve6-Ohr-18" value="Genomic Data Consumers" style="rounded=1;whiteSpace=wrap;html=1;fillColor=#dae8fc;strokeColor=#6c8ebf;" vertex="1" parent="1">
          <mxGeometry x="1210" y="1170" width="120" height="60" as="geometry" />
        </mxCell>
        <mxCell id="ASGDk-45rUAA4ve6-Ohr-24" style="edgeStyle=orthogonalEdgeStyle;rounded=0;orthogonalLoop=1;jettySize=auto;html=1;entryX=0;entryY=0.5;entryDx=0;entryDy=0;" edge="1" parent="1" source="ASGDk-45rUAA4ve6-Ohr-19" target="ASGDk-45rUAA4ve6-Ohr-23">
          <mxGeometry relative="1" as="geometry" />
        </mxCell>
        <mxCell id="ASGDk-45rUAA4ve6-Ohr-19" value="FHIR&amp;nbsp;&lt;div&gt;Repository&amp;nbsp;&lt;div&gt;Adaptor&lt;/div&gt;&lt;/div&gt;" style="strokeWidth=2;outlineConnect=0;dashed=0;align=center;html=1;fontSize=8;shape=mxgraph.eip.channel_adapter;fillColor=#9ddbef;" vertex="1" parent="1">
          <mxGeometry x="940" y="859" width="45" height="90" as="geometry" />
        </mxCell>
        <mxCell id="ASGDk-45rUAA4ve6-Ohr-20" value="" style="edgeStyle=orthogonalEdgeStyle;rounded=0;orthogonalLoop=1;jettySize=auto;html=1;" edge="1" parent="1" target="7jtiY5M9mVHTs9dgm_Sb-15">
          <mxGeometry relative="1" as="geometry">
            <mxPoint x="620" y="825.0000000000002" as="sourcePoint" />
            <mxPoint x="885" y="825" as="targetPoint" />
          </mxGeometry>
        </mxCell>
        <mxCell id="7jtiY5M9mVHTs9dgm_Sb-15" value="&lt;font style=&quot;font-size: 12px;&quot;&gt;Dynamic&amp;nbsp; Router&lt;/font&gt;" style="html=1;strokeWidth=2;outlineConnect=0;dashed=0;align=center;fontSize=8;shape=mxgraph.eip.content_based_router;verticalLabelPosition=bottom;verticalAlign=top;fillColor=#c0f5a9;" vertex="1" parent="1">
          <mxGeometry x="695" y="791.5" width="120" height="67.5" as="geometry" />
        </mxCell>
        <mxCell id="ASGDk-45rUAA4ve6-Ohr-22" style="edgeStyle=orthogonalEdgeStyle;rounded=0;orthogonalLoop=1;jettySize=auto;html=1;entryX=0;entryY=0.5;entryDx=0;entryDy=0;entryPerimeter=0;exitX=1;exitY=0.75;exitDx=0;exitDy=0;exitPerimeter=0;" edge="1" parent="1" source="7jtiY5M9mVHTs9dgm_Sb-15" target="ASGDk-45rUAA4ve6-Ohr-19">
          <mxGeometry relative="1" as="geometry">
            <mxPoint x="817" y="825.2857142857144" as="sourcePoint" />
            <mxPoint x="942" y="914.5" as="targetPoint" />
            <Array as="points">
              <mxPoint x="815" y="840" />
              <mxPoint x="850" y="840" />
              <mxPoint x="850" y="904" />
            </Array>
          </mxGeometry>
        </mxCell>
        <mxCell id="ASGDk-45rUAA4ve6-Ohr-25" style="edgeStyle=orthogonalEdgeStyle;rounded=0;orthogonalLoop=1;jettySize=auto;html=1;entryX=0;entryY=0.5;entryDx=0;entryDy=0;" edge="1" parent="1" source="ASGDk-45rUAA4ve6-Ohr-23">
          <mxGeometry relative="1" as="geometry">
            <mxPoint x="1284.5" y="903.2499999999998" as="targetPoint" />
          </mxGeometry>
        </mxCell>
        <mxCell id="ASGDk-45rUAA4ve6-Ohr-23" value="&lt;font style=&quot;font-size: 12px;&quot;&gt;Genomic Order Management&amp;nbsp;&lt;/font&gt;&lt;div&gt;&lt;font style=&quot;font-size: 12px;&quot;&gt;Service FHIR API&lt;/font&gt;&lt;/div&gt;" style="strokeWidth=2;dashed=0;align=center;fontSize=8;shape=rect;fillColor=#c0f5a9;verticalLabelPosition=bottom;verticalAlign=top;html=1;" vertex="1" parent="1">
          <mxGeometry x="1110" y="871" width="120" height="65.5" as="geometry" />
        </mxCell>
        <mxCell id="ASGDk-45rUAA4ve6-Ohr-26" value="NW NHS Trust&lt;br&gt;&lt;b&gt;Electronic Patient Record (EPR)&lt;/b&gt;" style="rounded=1;whiteSpace=wrap;html=1;fillColor=#dae8fc;strokeColor=#6c8ebf;" vertex="1" parent="1">
          <mxGeometry x="60" y="709.5" width="120" height="60" as="geometry" />
        </mxCell>
        <mxCell id="ASGDk-45rUAA4ve6-Ohr-30" value="" style="edgeStyle=orthogonalEdgeStyle;rounded=0;exitX=0;exitY=0.5;endArrow=none;dashed=0;html=1;strokeColor=#808080;strokeWidth=2;" edge="1" parent="1" source="ASGDk-45rUAA4ve6-Ohr-32" target="ASGDk-45rUAA4ve6-Ohr-31">
          <mxGeometry relative="1" as="geometry" />
        </mxCell>
        <mxCell id="ASGDk-45rUAA4ve6-Ohr-31" value="" style="strokeWidth=2;dashed=0;align=center;fontSize=8;shape=ellipse;fillColor=#808080;strokeColor=none;" vertex="1" parent="1">
          <mxGeometry x="130" y="811.5" width="12" height="12" as="geometry" />
        </mxCell>
        <mxCell id="ASGDk-45rUAA4ve6-Ohr-32" value="C" style="strokeWidth=2;dashed=0;align=center;fontSize=8;shape=rect;fillColor=#FF8080;fontStyle=1;whiteSpace=wrap;html=1;" vertex="1" parent="1">
          <mxGeometry x="146" y="829.5" width="12" height="12" as="geometry" />
        </mxCell>
        <mxCell id="ASGDk-45rUAA4ve6-Ohr-33" value="" style="rounded=0;whiteSpace=wrap;html=1;strokeColor=none;" vertex="1" parent="1">
          <mxGeometry x="1280" y="719.5" width="63" height="50" as="geometry" />
        </mxCell>
        <mxCell id="ASGDk-45rUAA4ve6-Ohr-34" value="" style="edgeStyle=orthogonalEdgeStyle;rounded=0;exitX=0;exitY=0.5;endArrow=none;dashed=0;html=1;strokeColor=#808080;strokeWidth=2;" edge="1" parent="1" source="ASGDk-45rUAA4ve6-Ohr-36" target="ASGDk-45rUAA4ve6-Ohr-35">
          <mxGeometry relative="1" as="geometry" />
        </mxCell>
        <mxCell id="ASGDk-45rUAA4ve6-Ohr-35" value="" style="strokeWidth=2;dashed=0;align=center;fontSize=8;shape=ellipse;fillColor=#808080;strokeColor=none;" vertex="1" parent="1">
          <mxGeometry x="1300" y="730.75" width="12" height="12" as="geometry" />
        </mxCell>
        <mxCell id="ASGDk-45rUAA4ve6-Ohr-36" value="C" style="strokeWidth=2;dashed=0;align=center;fontSize=8;shape=rect;fillColor=#FF8080;fontStyle=1;whiteSpace=wrap;html=1;" vertex="1" parent="1">
          <mxGeometry x="1316" y="748.75" width="12" height="12" as="geometry" />
        </mxCell>
        <mxCell id="ASGDk-45rUAA4ve6-Ohr-37" value="" style="rounded=0;whiteSpace=wrap;html=1;strokeColor=none;" vertex="1" parent="1">
          <mxGeometry x="1285" y="879" width="63" height="50" as="geometry" />
        </mxCell>
        <mxCell id="ASGDk-45rUAA4ve6-Ohr-38" value="" style="edgeStyle=orthogonalEdgeStyle;rounded=0;exitX=0;exitY=0.5;endArrow=none;dashed=0;html=1;strokeColor=#808080;strokeWidth=2;" edge="1" parent="1" source="ASGDk-45rUAA4ve6-Ohr-40" target="ASGDk-45rUAA4ve6-Ohr-39">
          <mxGeometry relative="1" as="geometry" />
        </mxCell>
        <mxCell id="ASGDk-45rUAA4ve6-Ohr-39" value="" style="strokeWidth=2;dashed=0;align=center;fontSize=8;shape=ellipse;fillColor=#808080;strokeColor=none;" vertex="1" parent="1">
          <mxGeometry x="1305" y="890.25" width="12" height="12" as="geometry" />
        </mxCell>
        <mxCell id="ASGDk-45rUAA4ve6-Ohr-40" value="C" style="strokeWidth=2;dashed=0;align=center;fontSize=8;shape=rect;fillColor=#FF8080;fontStyle=1;whiteSpace=wrap;html=1;" vertex="1" parent="1">
          <mxGeometry x="1321" y="908.25" width="12" height="12" as="geometry" />
        </mxCell>
        <mxCell id="ILvifMnPqF2TKCAFdpOd-1" value="&lt;span style=&quot;font-size: 12px;&quot;&gt;Update Genomic Data Repository&amp;nbsp;&lt;/span&gt;" style="html=1;strokeWidth=2;outlineConnect=0;dashed=0;align=center;fontSize=8;verticalLabelPosition=bottom;verticalAlign=top;shape=mxgraph.eip.wire_tap;fillColor=#c0f5a9" vertex="1" parent="1">
          <mxGeometry x="500" y="791.5" width="120" height="67.5" as="geometry" />
        </mxCell>
        <mxCell id="psYKPzLQwSFd3BFdngnA-3" value="Includes IHE QEDm (HL7 FHIR)" style="rounded=0;whiteSpace=wrap;html=1;fillColor=#e1d5e7;strokeColor=#9673a6;" vertex="1" parent="1">
          <mxGeometry x="1090" y="1260" width="245" height="25" as="geometry" />
        </mxCell>
        <mxCell id="psYKPzLQwSFd3BFdngnA-4" value="Follows IHE LTW LAB-1&amp;nbsp;" style="rounded=0;whiteSpace=wrap;html=1;fillColor=#e1d5e7;strokeColor=#9673a6;" vertex="1" parent="1">
          <mxGeometry x="70" y="630" width="1410" height="25" as="geometry" />
        </mxCell>
        <mxCell id="psYKPzLQwSFd3BFdngnA-8" value="FHIR Workflow and FHIR RESTful" style="rounded=0;whiteSpace=wrap;html=1;fillColor=#e1d5e7;strokeColor=#9673a6;" vertex="1" parent="1">
          <mxGeometry x="1103" y="990" width="245" height="25" as="geometry" />
        </mxCell>
        <mxCell id="psYKPzLQwSFd3BFdngnA-9" value="&lt;font style=&quot;font-size: 12px;&quot;&gt;Transform to&amp;nbsp;&lt;/font&gt;&lt;div&gt;&lt;font style=&quot;font-size: 12px;&quot;&gt;HL7 v2 Message&lt;/font&gt;&lt;br&gt;&lt;/div&gt;&lt;div&gt;&lt;font style=&quot;font-size: 12px;&quot;&gt;(Region Canonical Model)&lt;/font&gt;&lt;/div&gt;" style="html=1;strokeWidth=2;outlineConnect=0;dashed=0;align=center;fontSize=8;shape=mxgraph.eip.message_translator;fillColor=#c0f5a9;verticalLabelPosition=bottom;verticalAlign=top;" vertex="1" parent="1">
          <mxGeometry x="220" y="791.5" width="120" height="68" as="geometry" />
        </mxCell>
        <mxCell id="psYKPzLQwSFd3BFdngnA-10" style="edgeStyle=orthogonalEdgeStyle;rounded=0;orthogonalLoop=1;jettySize=auto;html=1;entryX=0;entryY=0.5;entryDx=0;entryDy=0;entryPerimeter=0;" edge="1" parent="1" source="SpyZkMs1lM7mogaTS6Ty-38" target="psYKPzLQwSFd3BFdngnA-9">
          <mxGeometry relative="1" as="geometry" />
        </mxCell>
      </root>
    </mxGraphModel>
  </diagram>
</mxfile>
